<svg width="11" height="11" viewBox="0 0 11 11" fill="none" xmlns="http://www.w3.org/2000/svg">
<path fill-rule="evenodd" clip-rule="evenodd" d="M10.5848 5.19205C10.5863 5.19582 10.5888 5.19901 10.5902 5.2027C10.6697 5.39306 10.6694 5.6079 10.5903 5.79868C10.5888 5.80244 10.5863 5.80564 10.5848 5.8094C10.5472 5.89578 10.4947 5.9775 10.4239 6.04824L6.78558 9.68658C6.48313 9.98904 5.99359 9.98895 5.69122 9.68658C5.38877 9.38413 5.38877 8.89467 5.69122 8.59222L8.0089 6.27471L1.12309 6.27471C0.696018 6.27503 0.349107 5.92812 0.349517 5.50114C0.349516 5.28728 0.436305 5.09405 0.576396 4.95396C0.716487 4.81387 0.909716 4.72708 1.12358 4.72708L8.00931 4.72716L5.69163 2.40948C5.38918 2.10703 5.38926 1.61749 5.69163 1.31512C5.99408 1.01267 6.48354 1.01267 6.78599 1.31512L10.4239 4.95322C10.4947 5.02396 10.5472 5.10559 10.5848 5.19205Z" fill="white"/>
</svg>
