<svg width="26" height="27" viewBox="0 0 26 27" fill="none" xmlns="http://www.w3.org/2000/svg">
<path fill-rule="evenodd" clip-rule="evenodd" d="M25.305 19.3412C25.3049 18.8986 25.1306 18.4742 24.8204 18.1612C24.5101 17.8482 24.0894 17.6723 23.6506 17.6723H6.34354L9.30972 14.68C9.46727 14.526 9.59286 14.3418 9.6792 14.1383C9.76554 13.9349 9.81089 13.7161 9.81261 13.4947C9.81434 13.2734 9.7724 13.0539 9.68924 12.8491C9.60609 12.6443 9.48337 12.4582 9.32824 12.3017C9.17311 12.1451 8.98867 12.0213 8.78565 11.9373C8.58262 11.8534 8.36507 11.811 8.14567 11.8127C7.92626 11.8144 7.70938 11.8601 7.50764 11.9471C7.30591 12.0342 7.12335 12.1608 6.9706 12.3197L1.17942 18.1609C0.869138 18.474 0.694824 18.8985 0.694824 19.3412C0.694824 19.7839 0.869138 20.2085 1.17942 20.5215L6.9706 26.363C7.12292 26.5236 7.30551 26.6519 7.50765 26.7404C7.70979 26.8289 7.92742 26.8757 8.14775 26.8782C8.36808 26.8806 8.58668 26.8387 8.79071 26.7547C8.99475 26.6708 9.18011 26.5466 9.33591 26.3894C9.49172 26.2323 9.61483 26.0453 9.69803 25.8394C9.78122 25.6336 9.82282 25.4131 9.82038 25.1908C9.81794 24.9686 9.77151 24.749 9.68382 24.5451C9.59613 24.3412 9.46894 24.157 9.30972 24.0033L6.34354 21.0102H23.6506C24.0894 21.0102 24.5102 20.8343 24.8204 20.5214C25.1307 20.2084 25.305 19.7839 25.305 19.3412ZM0.695011 7.65883C0.694972 7.43965 0.737738 7.22261 0.820867 7.0201C0.903995 6.8176 1.02586 6.6336 1.17949 6.47861C1.33312 6.32363 1.51552 6.2007 1.71626 6.11684C1.917 6.03298 2.13215 5.98984 2.34942 5.98987H19.6565L16.6903 2.99673C16.3914 2.68151 16.2267 2.26075 16.2315 1.82455C16.2363 1.38834 16.4102 0.971362 16.7159 0.662898C17.0217 0.354435 17.435 0.179006 17.8675 0.174175C18.2999 0.169344 18.717 0.335494 19.0294 0.637051L24.8206 6.47855C25.1308 6.79152 25.305 7.21597 25.305 7.65853C25.305 8.1011 25.1308 8.52555 24.8206 8.83852L19.0294 14.68C18.7192 14.993 18.2983 15.1688 17.8596 15.1688C17.4208 15.1688 17 14.993 16.6897 14.68C16.3795 14.367 16.2051 13.9425 16.2051 13.4999C16.2051 13.0572 16.3795 12.6327 16.6897 12.3197L19.6565 9.32779H2.34942C1.91065 9.32779 1.48984 9.15195 1.17958 8.83896C0.869314 8.52597 0.695011 8.10147 0.695011 7.65883Z" fill="#6C6C6C"/>
</svg>
