<svg width="28" height="28" viewBox="0 0 28 28" fill="none" xmlns="http://www.w3.org/2000/svg">
<path d="M25.9222 12.6C24.9555 12.6 24.15 13.3778 24.15 14.3111C24.15 19.9111 19.6389 24.4222 14 24.4222C8.3611 24.4222 3.84999 19.9111 3.84999 14.3111C3.84999 8.71111 8.3611 4.2 14 4.2C16.4167 4.2 18.9944 4.97778 20.7667 6.37778H18.8333C17.8667 6.37778 17.0611 7.15556 17.0611 8.08889C17.0611 9.02222 17.8667 9.8 18.8333 9.8H26.8889V1.71111C27.05 0.777778 26.2444 0 25.2778 0C24.3111 0 23.5055 0.777778 23.5055 1.71111V3.88889C20.9278 1.86667 17.5444 0.622222 14 0.622222C6.42776 0.622222 0.305542 6.68889 0.305542 14.3111C0.305542 21.9333 6.42776 28 14 28C21.5722 28 27.6944 21.9333 27.6944 14.3111C27.6944 13.3778 26.8889 12.6 25.9222 12.6Z" fill="url(#paint0_linear_324_1614)"/>
<defs>
<linearGradient id="paint0_linear_324_1614" x1="0.305542" y1="0" x2="28.0353" y2="0.34174" gradientUnits="userSpaceOnUse">
<stop stop-color="#7927FF"/>
<stop offset="1" stop-color="#8B1EA6"/>
</linearGradient>
</defs>
</svg>
