<svg width="29" height="28" viewBox="0 0 29 28" fill="none" xmlns="http://www.w3.org/2000/svg">
<path d="M26.2972 12.6C25.3305 12.6 24.525 13.3778 24.525 14.3111C24.525 19.9111 20.0139 24.4222 14.375 24.4222C8.7361 24.4222 4.22499 19.9111 4.22499 14.3111C4.22499 8.71111 8.7361 4.2 14.375 4.2C16.7917 4.2 19.3694 4.97778 21.1417 6.37778H19.2083C18.2417 6.37778 17.4361 7.15556 17.4361 8.08889C17.4361 9.02222 18.2417 9.8 19.2083 9.8H27.2639V1.71111C27.425 0.777778 26.6194 0 25.6528 0C24.6861 0 23.8805 0.777778 23.8805 1.71111V3.88889C21.3028 1.86667 17.9194 0.622222 14.375 0.622222C6.80276 0.622222 0.680542 6.68889 0.680542 14.3111C0.680542 21.9333 6.80276 28 14.375 28C21.9472 28 28.0694 21.9333 28.0694 14.3111C28.0694 13.3778 27.2639 12.6 26.2972 12.6Z" fill="#6C6C6C"/>
</svg>
