<svg width="25" height="27" viewBox="0 0 25 27" fill="none" xmlns="http://www.w3.org/2000/svg">
<path fill-rule="evenodd" clip-rule="evenodd" d="M24.93 19.341C24.9299 18.8984 24.7556 18.4739 24.4454 18.1609C24.1351 17.848 23.7144 17.6721 23.2756 17.672H5.96854L8.93472 14.6798C9.09227 14.5257 9.21786 14.3416 9.3042 14.1381C9.39054 13.9346 9.43589 13.7158 9.43761 13.4945C9.43934 13.2732 9.3974 13.0537 9.31424 12.8489C9.23109 12.644 9.10837 12.4579 8.95324 12.3014C8.79811 12.1449 8.61367 12.021 8.41065 11.9371C8.20762 11.8532 7.99007 11.8108 7.77067 11.8125C7.55126 11.8142 7.33438 11.8599 7.13264 11.9469C6.93091 12.0339 6.74835 12.1606 6.5956 12.3195L0.804423 18.1607C0.494138 18.4737 0.319824 18.8983 0.319824 19.341C0.319824 19.7837 0.494138 20.2082 0.804423 20.5213L6.5956 26.3628C6.74792 26.5234 6.93051 26.6517 7.13265 26.7402C7.33479 26.8286 7.55242 26.8755 7.77275 26.8779C7.99308 26.8804 8.21168 26.8384 8.41571 26.7545C8.61975 26.6706 8.80511 26.5464 8.96091 26.3892C9.11672 26.232 9.23983 26.045 9.32303 25.8392C9.40622 25.6334 9.44782 25.4128 9.44538 25.1906C9.44294 24.9683 9.39651 24.7488 9.30882 24.5449C9.22113 24.3409 9.09394 24.1567 8.93472 24.0031L5.96854 21.0099H23.2756C23.7144 21.0099 24.1352 20.8341 24.4454 20.5211C24.7557 20.2081 24.93 19.7836 24.93 19.341ZM0.320011 7.65859C0.319972 7.43941 0.362738 7.22236 0.445867 7.01986C0.528995 6.81735 0.650857 6.63335 0.804491 6.47837C0.958125 6.32339 1.14052 6.20045 1.34126 6.11659C1.542 6.03273 1.75715 5.98959 1.97442 5.98963H19.2815L16.3153 2.99649C16.0164 2.68127 15.8517 2.26051 15.8565 1.8243C15.8613 1.38809 16.0352 0.971118 16.3409 0.662654C16.6467 0.354191 17.06 0.178762 17.4925 0.173931C17.9249 0.1691 18.342 0.33525 18.6544 0.636806L24.4456 6.4783C24.7558 6.79128 24.93 7.21572 24.93 7.65829C24.93 8.10086 24.7558 8.5253 24.4456 8.83828L18.6544 14.6798C18.3442 14.9928 17.9233 15.1686 17.4846 15.1686C17.0458 15.1686 16.625 14.9928 16.3147 14.6798C16.0045 14.3668 15.8301 13.9423 15.8301 13.4996C15.8301 13.057 16.0045 12.6325 16.3147 12.3195L19.2815 9.32754H1.97442C1.53565 9.32754 1.11484 9.15171 0.804577 8.83872C0.494314 8.52573 0.320011 8.10122 0.320011 7.65859Z" fill="url(#paint0_linear_324_2589)"/>
<defs>
<linearGradient id="paint0_linear_324_2589" x1="0.319824" y1="0.173828" x2="25.2367" y2="0.463138" gradientUnits="userSpaceOnUse">
<stop stop-color="#7927FF"/>
<stop offset="1" stop-color="#8B1EA6"/>
</linearGradient>
</defs>
</svg>
