<svg width="12" height="6" viewBox="0 0 12 6" fill="none" xmlns="http://www.w3.org/2000/svg">
<g clip-path="url(#clip0_1763_3586)">
<path d="M6.38283 5.7597C6.49911 5.7496 6.60919 5.70286 6.69721 5.6262L11.7963 1.21614C11.8538 1.16949 11.9012 1.11176 11.9358 1.0464C11.9705 0.981037 11.9916 0.909367 11.998 0.835667C12.0043 0.761967 11.9958 0.687737 11.9729 0.617404C11.9499 0.547072 11.9131 0.482075 11.8645 0.426278C11.816 0.370482 11.7567 0.325027 11.6902 0.292627C11.6237 0.260228 11.5513 0.241541 11.4774 0.237683C11.4036 0.233826 11.3297 0.24488 11.2602 0.270177C11.1906 0.295474 11.1269 0.334501 11.0728 0.384935L6.33545 4.48061L1.59808 0.384936C1.54396 0.334502 1.48025 0.295467 1.41074 0.27017C1.34122 0.244873 1.26733 0.233827 1.19345 0.237684C1.11958 0.241542 1.04724 0.260229 0.980734 0.292628C0.914233 0.325028 0.854931 0.370482 0.806363 0.426279C0.757794 0.482076 0.720951 0.547072 0.698027 0.617405C0.675104 0.687739 0.666569 0.761967 0.672932 0.835668C0.679295 0.909368 0.700426 0.981038 0.735064 1.0464C0.769703 1.11176 0.81714 1.16949 0.874553 1.21614L5.97368 5.6262C6.02944 5.67475 6.0944 5.71158 6.16469 5.73452C6.23498 5.75745 6.30916 5.76602 6.38283 5.7597Z" fill="#6C6C6C"/>
</g>
<defs>
<clipPath id="clip0_1763_3586">
<rect width="5.52479" height="11.3291" fill="white" transform="translate(12 0.237305) rotate(90)"/>
</clipPath>
</defs>
</svg>
