<svg width="11" height="11" viewBox="0 0 11 11" fill="none" xmlns="http://www.w3.org/2000/svg">
<path fill-rule="evenodd" clip-rule="evenodd" d="M0.415181 5.19205C0.413708 5.19582 0.41117 5.19901 0.409778 5.2027C0.330276 5.39306 0.330603 5.6079 0.409695 5.79868C0.411169 5.80244 0.413708 5.80564 0.415182 5.8094C0.452763 5.89578 0.505327 5.9775 0.576069 6.04824L4.21442 9.68658C4.51687 9.98904 5.00641 9.98895 5.30878 9.68658C5.61123 9.38413 5.61123 8.89467 5.30878 8.59222L2.9911 6.27471L9.87691 6.27471C10.304 6.27503 10.6509 5.92812 10.6505 5.50114C10.6505 5.28728 10.5637 5.09405 10.4236 4.95396C10.2835 4.81387 10.0903 4.72708 9.87642 4.72708L2.99069 4.72716L5.30837 2.40948C5.61082 2.10703 5.61074 1.61749 5.30837 1.31512C5.00592 1.01267 4.51646 1.01267 4.21401 1.31512L0.576069 4.95322C0.505328 5.02396 0.452845 5.10559 0.415181 5.19205Z" fill="white"/>
</svg>
