<svg width="20" height="20" viewBox="0 0 20 20" fill="none" xmlns="http://www.w3.org/2000/svg">
<path d="M10 0C4.48633 0 0 4.48584 0 10C0 15.5142 4.48633 20 10 20C15.5137 20 20 15.5142 20 10C20 4.48584 15.5137 0 10 0ZM14.7998 13.6001C14.6035 13.8618 14.3037 14 13.999 14C13.79 14 13.5801 13.9351 13.4004 13.7998L9.40039 10.7998C9.14844 10.6113 9 10.3149 9 10V2.98999C9 2.43774 9.44727 1.98999 10 1.98999C10.5527 1.98999 11 2.43774 11 2.98999V9.5L14.5996 12.2002C15.042 12.5312 15.1318 13.1582 14.7998 13.6001Z" fill="url(#paint0_linear_324_1751)"/>
<defs>
<linearGradient id="paint0_linear_324_1751" x1="0" y1="0" x2="20.2488" y2="0.255112" gradientUnits="userSpaceOnUse">
<stop stop-color="#7927FF"/>
<stop offset="1" stop-color="#8B1EA6"/>
</linearGradient>
</defs>
</svg>
