<svg width="16" height="20" viewBox="0 0 16 20" fill="none" xmlns="http://www.w3.org/2000/svg">
<g clip-path="url(#clip0_320_4516)">
<path d="M14.6286 4.0625H4.99053C4.32386 4.0625 3.79053 4.64583 3.79053 5.375V18.5625C3.79053 19.2708 4.30481 19.8542 4.95243 19.875H14.6477C15.3143 19.875 15.8477 19.2917 15.8477 18.5625V5.375C15.8477 4.64583 15.2953 4.0625 14.6286 4.0625Z" fill="#6C6C6C"/>
<path d="M12.2285 2.74984V1.4165C12.2285 0.687337 11.6952 0.104004 11.0285 0.104004H1.37139C0.70472 0.104004 0.171387 0.687337 0.171387 1.4165V2.729V15.9165C0.171387 16.6457 0.70472 17.229 1.37139 17.229H2.57139V15.9165V2.74984H11.0095H12.2285Z" fill="#6C6C6C"/>
</g>
<defs>
<clipPath id="clip0_320_4516">
<rect width="16" height="20" fill="white"/>
</clipPath>
</defs>
</svg>
