<svg width="30" height="29" viewBox="0 0 30 29" fill="none" xmlns="http://www.w3.org/2000/svg">
<path d="M15 0C7.00814 0 0.5 6.50814 0.5 14.5C0.5 22.4919 7.00814 29 15 29C22.9919 29 29.5 22.4919 29.5 14.5C29.5 6.50814 22.9919 0 15 0ZM21.7442 11.8698L13.6512 19.9628C13.3814 20.2326 13.0442 20.3674 12.707 20.3674C12.3698 20.3674 12.0326 20.2326 11.7628 19.9628L7.5814 15.8488C7.04186 15.3093 7.04186 14.4663 7.5814 13.9267C8.12093 13.3872 8.96395 13.3872 9.50349 13.9267L12.6733 17.0965L19.8221 9.94767C20.3616 9.40814 21.2047 9.40814 21.7442 9.94767C22.25 10.4872 22.25 11.3302 21.7442 11.8698Z" fill="white"/>
</svg>
