<svg width="29" height="29" viewBox="0 0 29 29" fill="none" xmlns="http://www.w3.org/2000/svg">
<path d="M14.5 0C6.50814 0 0 6.50814 0 14.5C0 22.4919 6.50814 29 14.5 29C22.4919 29 29 22.4919 29 14.5C29 6.50814 22.4919 0 14.5 0ZM21.2442 11.8698L13.1512 19.9628C12.8814 20.2326 12.5442 20.3674 12.207 20.3674C11.8698 20.3674 11.5326 20.2326 11.2628 19.9628L7.0814 15.8488C6.54186 15.3093 6.54186 14.4663 7.0814 13.9267C7.62093 13.3872 8.46395 13.3872 9.00349 13.9267L12.1733 17.0965L19.3221 9.94767C19.8616 9.40814 20.7047 9.40814 21.2442 9.94767C21.75 10.4872 21.75 11.3302 21.2442 11.8698Z" fill="#27AE60"/>
</svg>
