<svg width="95" height="76" viewBox="0 0 95 76" fill="none" xmlns="http://www.w3.org/2000/svg">
<path d="M56.489 41.7149L43.4523 32.7364C41.2267 34.5102 38.8844 36.2941 36.5948 37.9643C34.2205 39.6963 31.8142 41.3765 29.4287 42.8912L32.12 59.4165L33.5414 68.3004C33.7248 69.5946 35.4026 69.7235 37.0248 68.7655C41.2661 66.2729 45.6338 63.3873 50.1281 60.1088C54.6224 56.8303 58.7344 53.53 62.4642 50.2079C63.9794 48.8771 64.4216 47.2017 63.3902 46.5261L56.489 41.7149Z" fill="url(#paint0_linear_111_1397)"/>
<path d="M26.0105 24.2233C30.4068 21.4524 33.2375 17.8439 32.0743 15.6451C29.6445 11.052 24.1255 9.57873 19.7292 12.3496C15.3328 15.1205 13.7428 21.0744 16.1727 25.6675C17.3617 27.9152 21.6141 26.9942 26.0105 24.2233Z" fill="#7927FF"/>
<path d="M33.8976 13.3586C34.1499 13.7176 34.33 14.0574 34.5358 14.4457C36.4652 18.0859 33.6762 23.0115 27.4853 26.9057C21.2479 30.8292 16.01 31.0176 14.0549 27.3288C13.8491 26.9405 13.669 26.6008 13.5097 26.1832C8.58185 31.2892 6.15903 36.4375 7.80548 39.5438C10.3009 44.2518 21.1773 42.523 32.1159 35.6422C43.0081 28.7908 49.8664 19.3639 47.371 14.6559C45.7245 11.5496 40.4204 11.2618 33.8976 13.3586ZM20.2388 36.7709C19.2613 37.3858 18.1355 37.2526 17.7496 36.5246C17.338 35.748 17.8206 34.6678 18.7981 34.0529C19.7756 33.438 20.9014 33.5713 21.2872 34.2993C21.6731 35.0273 21.2163 36.1561 20.2388 36.7709ZM30.3151 32.2447C29.3376 32.8596 28.2119 32.7264 27.826 31.9983C27.4144 31.2218 27.897 30.1416 28.8745 29.5267C29.852 28.9118 30.9778 29.045 31.3636 29.7731C31.7495 30.5011 31.2926 31.6298 30.3151 32.2447ZM38.9975 24.9712C38.02 25.586 36.8942 25.4528 36.5083 24.7248C36.0967 23.9482 36.5793 22.868 37.5568 22.2531C38.5343 21.6383 39.6601 21.7715 40.0459 22.4995C40.4318 23.2276 39.975 24.3563 38.9975 24.9712Z" fill="#7927FF"/>
<path d="M32.6686 56.3663C32.0709 56.3663 31.4937 56.293 30.9368 56.1464C30.3799 55.9998 29.9215 55.8092 29.5615 55.5747L30.3357 53.6838C30.6753 53.8963 31.0522 54.0686 31.4665 54.2005C31.8876 54.3251 32.2951 54.3874 32.689 54.3874C32.9199 54.3874 33.0998 54.3727 33.2289 54.3434C33.3647 54.3068 33.4632 54.2591 33.5243 54.2005C33.5854 54.1345 33.616 54.0576 33.616 53.9696C33.616 53.8304 33.5447 53.7204 33.4021 53.6398C33.2594 53.5592 33.0693 53.4932 32.8316 53.4419C32.6007 53.3833 32.346 53.3247 32.0675 53.266C31.7891 53.2001 31.5073 53.1158 31.222 53.0132C30.9436 52.9106 30.6855 52.775 30.4478 52.6064C30.2169 52.4378 30.0301 52.218 29.8875 51.9468C29.7449 51.6683 29.6736 51.3238 29.6736 50.9134C29.6736 50.437 29.7958 50.0046 30.0403 49.6161C30.2916 49.2203 30.6617 48.9052 31.1507 48.6706C31.6465 48.4361 32.2611 48.3188 32.9946 48.3188C33.4768 48.3188 33.9522 48.3738 34.4208 48.4838C34.8894 48.5937 35.3104 48.7623 35.684 48.9895L34.9607 50.8694C34.6075 50.6788 34.2646 50.5359 33.9318 50.4406C33.6058 50.3454 33.2866 50.2977 32.9742 50.2977C32.7433 50.2977 32.5599 50.3197 32.4241 50.3637C32.2883 50.4077 32.1898 50.4663 32.1287 50.5396C32.0743 50.6129 32.0472 50.6935 32.0472 50.7814C32.0472 50.9134 32.1185 51.0196 32.2611 51.1003C32.4037 51.1736 32.5905 51.2358 32.8214 51.2872C33.0591 51.3385 33.3172 51.3934 33.5956 51.4521C33.8808 51.5107 34.1627 51.5913 34.4411 51.6939C34.7196 51.7965 34.9743 51.9321 35.2052 52.1007C35.4429 52.2693 35.633 52.4891 35.7756 52.7603C35.9183 53.0315 35.9896 53.3686 35.9896 53.7717C35.9896 54.2408 35.8639 54.6732 35.6126 55.069C35.3682 55.4574 35.0014 55.7726 34.5124 56.0145C34.0235 56.249 33.4088 56.3663 32.6686 56.3663Z" fill="white"/>
<path d="M38.9156 56.1904L36.6337 48.4947H39.1091L40.953 54.992H39.7102L41.6661 48.4947H43.8767L45.7002 54.992H44.5083L46.4336 48.4947H48.7155L46.4336 56.1904H43.8563L42.369 50.8694H43.0617L41.4929 56.1904H38.9156Z" fill="white"/>
<path d="M48.624 56.1904L51.7413 48.4947H54.1046L57.2219 56.1904H54.7362L52.434 49.726H53.3712L51.0689 56.1904H48.624ZM50.4781 54.8491L51.0893 52.9802H54.3695L54.9807 54.8491H50.4781Z" fill="white"/>
<path d="M58.0131 56.1904V48.4947H61.4461C62.1117 48.4947 62.6855 48.612 63.1677 48.8465C63.6567 49.0811 64.0336 49.4182 64.2985 49.858C64.5634 50.2904 64.6958 50.8034 64.6958 51.3971C64.6958 51.9908 64.5634 52.5038 64.2985 52.9362C64.0336 53.3686 63.6567 53.7058 63.1677 53.9476C62.6855 54.1822 62.1117 54.2994 61.4461 54.2994H59.3476L60.4172 53.1891V56.1904H58.0131ZM60.4172 53.4749L59.3476 52.2986H61.2933C61.6261 52.2986 61.8706 52.218 62.0268 52.0567C62.1898 51.8955 62.2713 51.6756 62.2713 51.3971C62.2713 51.1186 62.1898 50.8987 62.0268 50.7375C61.8706 50.5762 61.6261 50.4956 61.2933 50.4956H59.3476L60.4172 49.3193V53.4749Z" fill="white"/>
<path d="M69.7299 56.3663C69.1526 56.3663 68.6161 56.2673 68.1203 56.0694C67.6313 55.8715 67.2069 55.593 66.8469 55.2339C66.487 54.8674 66.2051 54.4387 66.0014 53.9476C65.8045 53.4566 65.706 52.9216 65.706 52.3426C65.706 51.7562 65.8045 51.2212 66.0014 50.7375C66.2051 50.2464 66.487 49.8213 66.8469 49.4622C67.2069 49.0957 67.6313 48.8136 68.1203 48.6157C68.6161 48.4178 69.1526 48.3188 69.7299 48.3188C70.3139 48.3188 70.8504 48.4178 71.3394 48.6157C71.8284 48.8136 72.2529 49.0957 72.6128 49.4622C72.9728 49.8213 73.2512 50.2464 73.4482 50.7375C73.6519 51.2212 73.7538 51.7562 73.7538 52.3426C73.7538 52.9216 73.6519 53.4566 73.4482 53.9476C73.2512 54.4387 72.9728 54.8674 72.6128 55.2339C72.2529 55.593 71.8284 55.8715 71.3394 56.0694C70.8504 56.2673 70.3139 56.3663 69.7299 56.3663ZM69.7299 54.2665C69.954 54.2665 70.1611 54.2225 70.3513 54.1345C70.5482 54.0466 70.718 53.922 70.8606 53.7607C71.0101 53.5922 71.1255 53.3906 71.207 53.1561C71.2885 52.9142 71.3292 52.643 71.3292 52.3426C71.3292 52.0421 71.2885 51.7745 71.207 51.54C71.1255 51.2981 71.0101 51.0966 70.8606 50.9354C70.718 50.7668 70.5482 50.6385 70.3513 50.5506C70.1611 50.4626 69.954 50.4186 69.7299 50.4186C69.5058 50.4186 69.2952 50.4626 69.0983 50.5506C68.9081 50.6385 68.7383 50.7668 68.5889 50.9354C68.4463 51.0966 68.3342 51.2981 68.2527 51.54C68.1712 51.7745 68.1305 52.0421 68.1305 52.3426C68.1305 52.643 68.1712 52.9142 68.2527 53.1561C68.3342 53.3906 68.4463 53.5922 68.5889 53.7607C68.7383 53.922 68.9081 54.0466 69.0983 54.1345C69.2952 54.2225 69.5058 54.2665 69.7299 54.2665Z" fill="white"/>
<path d="M75.0338 56.1904V48.4947H77.0101L80.6367 53.1781H79.7199V48.4947H82.0629V56.1904H80.0866L76.46 51.507H77.3769V56.1904H75.0338Z" fill="white"/>
<path d="M87.0752 56.1902L90.2536 51.397L90.2434 53.2109L87.1669 48.4946H89.8665L91.6594 51.353L90.5082 51.364L92.2604 48.4946H94.8479L91.7714 53.112V51.309L95.0007 56.1902H92.2502L90.4573 53.1999L91.5677 53.1889L89.8155 56.1902H87.0752Z" fill="white"/>
<path d="M83.7754 56.1902V48.4946H86.1795V56.1902H83.7754Z" fill="#EFF312"/>
<defs>
<linearGradient id="paint0_linear_111_1397" x1="30.585" y1="43.9115" x2="65.5055" y2="61.5241" gradientUnits="userSpaceOnUse">
<stop stop-color="#7927FF"/>
<stop offset="1" stop-color="#232323" stop-opacity="0"/>
</linearGradient>
</defs>
</svg>
