<svg width="12" height="7" viewBox="0 0 12 7" fill="none" xmlns="http://www.w3.org/2000/svg">
<path d="M6.38283 6.26068C6.49911 6.25058 6.60919 6.20383 6.69721 6.12717L11.7963 1.71711C11.8538 1.67047 11.9012 1.61274 11.9358 1.54738C11.9705 1.48201 11.9916 1.41034 11.998 1.33664C12.0043 1.26294 11.9958 1.18871 11.9729 1.11838C11.9499 1.04805 11.9131 0.983051 11.8645 0.927255C11.816 0.871458 11.7567 0.826004 11.6902 0.793604C11.6237 0.761204 11.5513 0.742518 11.4774 0.73866C11.4036 0.734802 11.3297 0.745857 11.2602 0.771154C11.1906 0.796451 11.1269 0.835478 11.0728 0.885912L6.33545 4.98159L1.59808 0.885913C1.54396 0.835478 1.48025 0.796443 1.41074 0.771146C1.34122 0.745849 1.26733 0.734803 1.19345 0.738661C1.11958 0.742518 1.04724 0.761205 0.980734 0.793605C0.914233 0.826005 0.854931 0.871459 0.806363 0.927256C0.757794 0.983052 0.720951 1.04805 0.698027 1.11838C0.675104 1.18872 0.666569 1.26294 0.672932 1.33664C0.679295 1.41034 0.700426 1.48201 0.735064 1.54738C0.769703 1.61274 0.81714 1.67047 0.874553 1.71711L5.97368 6.12717C6.02944 6.17572 6.0944 6.21256 6.16469 6.2355C6.23498 6.25843 6.30916 6.267 6.38283 6.26068Z" fill="#6C6C6C"/>
</svg>
