<svg width="29" height="28" viewBox="0 0 29 28" fill="none" xmlns="http://www.w3.org/2000/svg">
<path d="M18.3701 20.2444C18.3476 20.7333 18.5508 21.2 18.8895 21.5555C19.2282 21.8888 19.6798 22.0666 20.154 22.0666C20.6282 22.0666 21.0798 21.8888 21.4185 21.5555L27.3347 15.7333C27.8088 15.2666 28.0572 14.6666 28.0572 14.0222C28.0572 13.3777 27.8088 12.7777 27.3347 12.3111L21.3959 6.46662C20.6959 5.77773 19.5895 5.77773 18.8895 6.46662C18.1895 7.15551 18.1895 8.2444 18.8895 8.93328L22.1411 12.1333H8.68304C7.71207 12.1333 6.89917 12.9111 6.89917 13.8888C6.89917 14.8666 7.68949 15.6444 8.68304 15.6444H22.3669L18.9121 19.0444C18.5734 19.3555 18.3701 19.7777 18.3701 20.2444Z" fill="url(#paint0_linear_324_1779)"/>
<path d="M28.0347 3.24441C28.0347 1.5333 26.6347 0.155518 24.9186 0.155518H3.30888C1.61533 0.155518 0.215332 1.5333 0.215332 3.24441V24.7777C0.215332 26.4889 1.61533 27.8666 3.33146 27.8666H24.9411C26.2057 27.8666 27.2895 27.1111 27.7637 26.0444C27.9444 25.8 28.0347 25.4889 28.0347 25.1555V17.9333L24.8057 21.1111V24.6666H3.44436V3.3333H24.8057V6.88885L28.0347 10.0666V3.24441Z" fill="url(#paint1_linear_324_1779)"/>
<defs>
<linearGradient id="paint0_linear_324_1779" x1="6.89917" y1="5.94995" x2="28.3179" y2="6.30422" gradientUnits="userSpaceOnUse">
<stop stop-color="#7927FF"/>
<stop offset="1" stop-color="#8B1EA6"/>
</linearGradient>
<linearGradient id="paint1_linear_324_1779" x1="0.215332" y1="0.155518" x2="28.3807" y2="0.511756" gradientUnits="userSpaceOnUse">
<stop stop-color="#7927FF"/>
<stop offset="1" stop-color="#8B1EA6"/>
</linearGradient>
</defs>
</svg>
