<svg width="29" height="28" viewBox="0 0 29 28" fill="none" xmlns="http://www.w3.org/2000/svg">
<path d="M10.6298 20.2446C10.6524 20.7335 10.4492 21.2002 10.1104 21.5558C9.77174 21.8891 9.32012 22.0669 8.84593 22.0669C8.37174 22.0669 7.92012 21.8891 7.58141 21.5558L1.66528 15.7335C1.19109 15.2669 0.942703 14.6669 0.942703 14.0224C0.942703 13.378 1.19109 12.778 1.66528 12.3113L7.60399 6.46686C8.30399 5.77797 9.41045 5.77797 10.1104 6.46686C10.8104 7.15575 10.8104 8.24464 10.1104 8.93353L6.85883 12.1335H20.3169C21.2879 12.1335 22.1008 12.9113 22.1008 13.8891C22.1008 14.8669 21.3104 15.6446 20.3169 15.6446H6.63303L10.0879 19.0446C10.4266 19.3558 10.6298 19.778 10.6298 20.2446Z" fill="url(#paint0_linear_324_1422)"/>
<path d="M0.965313 3.24465C0.965313 1.53354 2.36531 0.155762 4.08144 0.155762H25.6911C27.3847 0.155762 28.7847 1.53354 28.7847 3.24465V24.778C28.7847 26.4891 27.3847 27.8669 25.6685 27.8669H4.05886C2.79434 27.8669 1.71047 27.1113 1.23628 26.0447C1.05564 25.8002 0.965313 25.4891 0.965313 25.1558V17.9335L4.19434 21.1113V24.6669H25.5556V3.33354H4.19434V6.88909L0.965313 10.0669V3.24465Z" fill="url(#paint1_linear_324_1422)"/>
<defs>
<linearGradient id="paint0_linear_324_1422" x1="22.1008" y1="5.9502" x2="0.681994" y2="6.30446" gradientUnits="userSpaceOnUse">
<stop stop-color="#7927FF"/>
<stop offset="1" stop-color="#8B1EA6"/>
</linearGradient>
<linearGradient id="paint1_linear_324_1422" x1="28.7847" y1="0.155762" x2="0.619325" y2="0.512001" gradientUnits="userSpaceOnUse">
<stop stop-color="#7927FF"/>
<stop offset="1" stop-color="#8B1EA6"/>
</linearGradient>
</defs>
</svg>
