<svg width="110" height="110" viewBox="0 0 110 110" fill="none" xmlns="http://www.w3.org/2000/svg">
<path d="M55 0C24.686 0 0 24.686 0 55C0 85.314 24.686 110 55 110C85.314 110 110 85.314 110 55C110 24.686 85.314 0 55 0ZM80.5814 45.0233L49.8837 75.7209C48.8605 76.7442 47.5814 77.2558 46.3023 77.2558C45.0233 77.2558 43.7442 76.7442 42.7209 75.7209L26.8605 60.1163C24.814 58.0698 24.814 54.8721 26.8605 52.8256C28.907 50.7791 32.1047 50.7791 34.1512 52.8256L46.1744 64.8488L73.2907 37.7326C75.3372 35.686 78.5349 35.686 80.5814 37.7326C82.5 39.7791 82.5 42.9767 80.5814 45.0233Z" fill="#27AE60"/>
</svg>
